<mxfile host="app.diagrams.net" agent="Mozilla/5.0 (Windows NT 10.0; Win64; x64; rv:144.0) Gecko/20100101 Firefox/144.0" version="28.2.7">
  <diagram name="Page-1" id="EYg3MqegUCzYYS_CXkTB">
    <mxGraphModel dx="2647" dy="2111" grid="1" gridSize="10" guides="1" tooltips="1" connect="1" arrows="1" fold="1" page="1" pageScale="1" pageWidth="827" pageHeight="1169" math="0" shadow="0">
      <root>
        <mxCell id="0" />
        <mxCell id="1" parent="0" />
        <mxCell id="wHHLx8FjQf187PXlfKUF-154" value="«class»&lt;br&gt;&lt;div&gt;&lt;b&gt;Auth&lt;/b&gt;&lt;/div&gt;" style="html=1;dropTarget=0;whiteSpace=wrap;strokeColor=#0F8B8D;fontColor=#143642;fillColor=#FAE5C7;" vertex="1" parent="1">
          <mxGeometry x="-250" y="55" width="180" height="90" as="geometry" />
        </mxCell>
        <mxCell id="wHHLx8FjQf187PXlfKUF-155" value="" style="shape=module;jettyWidth=8;jettyHeight=4;strokeColor=#0F8B8D;fontColor=#143642;fillColor=#FAE5C7;" vertex="1" parent="wHHLx8FjQf187PXlfKUF-154">
          <mxGeometry x="1" width="20" height="20" relative="1" as="geometry">
            <mxPoint x="-27" y="7" as="offset" />
          </mxGeometry>
        </mxCell>
        <mxCell id="wHHLx8FjQf187PXlfKUF-156" value="&lt;p style=&quot;margin:0px;margin-top:6px;text-align:center;&quot;&gt;&lt;b&gt;Module Fiche Présence&lt;/b&gt;&lt;/p&gt;&lt;hr size=&quot;1&quot; style=&quot;border-style:solid;&quot;&gt;&lt;p style=&quot;margin:0px;margin-left:8px;&quot;&gt;&lt;br&gt;&lt;/p&gt;" style="align=left;overflow=fill;html=1;dropTarget=0;whiteSpace=wrap;strokeColor=#0F8B8D;fontColor=#143642;fillColor=#FAE5C7;" vertex="1" parent="1">
          <mxGeometry x="40" y="200" width="530" height="300" as="geometry" />
        </mxCell>
        <mxCell id="wHHLx8FjQf187PXlfKUF-157" value="" style="shape=component;jettyWidth=8;jettyHeight=4;strokeColor=#0F8B8D;fontColor=#143642;fillColor=#FAE5C7;" vertex="1" parent="wHHLx8FjQf187PXlfKUF-156">
          <mxGeometry x="1" width="20" height="20" relative="1" as="geometry">
            <mxPoint x="-24" y="4" as="offset" />
          </mxGeometry>
        </mxCell>
        <mxCell id="wHHLx8FjQf187PXlfKUF-158" value="«class»&lt;br&gt;&lt;b&gt;Signature&lt;/b&gt;" style="html=1;dropTarget=0;whiteSpace=wrap;strokeColor=#0F8B8D;fontColor=#143642;fillColor=#FAE5C7;" vertex="1" parent="1">
          <mxGeometry x="90" y="390" width="180" height="90" as="geometry" />
        </mxCell>
        <mxCell id="wHHLx8FjQf187PXlfKUF-159" value="" style="shape=module;jettyWidth=8;jettyHeight=4;strokeColor=#0F8B8D;fontColor=#143642;fillColor=#FAE5C7;" vertex="1" parent="wHHLx8FjQf187PXlfKUF-158">
          <mxGeometry x="1" width="20" height="20" relative="1" as="geometry">
            <mxPoint x="-27" y="7" as="offset" />
          </mxGeometry>
        </mxCell>
        <mxCell id="wHHLx8FjQf187PXlfKUF-164" value="«controller»&lt;br&gt;&lt;b&gt;Pesence&lt;/b&gt;" style="html=1;dropTarget=0;whiteSpace=wrap;strokeColor=#0F8B8D;fontColor=#143642;fillColor=#FAE5C7;" vertex="1" parent="1">
          <mxGeometry x="90" y="260" width="180" height="90" as="geometry" />
        </mxCell>
        <mxCell id="wHHLx8FjQf187PXlfKUF-165" value="" style="shape=module;jettyWidth=8;jettyHeight=4;strokeColor=#0F8B8D;fontColor=#143642;fillColor=#FAE5C7;" vertex="1" parent="wHHLx8FjQf187PXlfKUF-164">
          <mxGeometry x="1" width="20" height="20" relative="1" as="geometry">
            <mxPoint x="-27" y="7" as="offset" />
          </mxGeometry>
        </mxCell>
        <mxCell id="wHHLx8FjQf187PXlfKUF-166" value="&lt;p style=&quot;margin:0px;margin-top:6px;text-align:center;&quot;&gt;&lt;b&gt;Module Fiche Eval&lt;/b&gt;&lt;/p&gt;&lt;hr size=&quot;1&quot; style=&quot;border-style:solid;&quot;&gt;&lt;p style=&quot;margin:0px;margin-left:8px;&quot;&gt;&lt;br&gt;&lt;/p&gt;" style="align=left;overflow=fill;html=1;dropTarget=0;whiteSpace=wrap;strokeColor=#0F8B8D;fontColor=#143642;fillColor=#FAE5C7;" vertex="1" parent="1">
          <mxGeometry x="40" y="560" width="530" height="260" as="geometry" />
        </mxCell>
        <mxCell id="wHHLx8FjQf187PXlfKUF-167" value="" style="shape=component;jettyWidth=8;jettyHeight=4;strokeColor=#0F8B8D;fontColor=#143642;fillColor=#FAE5C7;" vertex="1" parent="wHHLx8FjQf187PXlfKUF-166">
          <mxGeometry x="1" width="20" height="20" relative="1" as="geometry">
            <mxPoint x="-24" y="4" as="offset" />
          </mxGeometry>
        </mxCell>
        <mxCell id="wHHLx8FjQf187PXlfKUF-168" value="«class»&lt;br&gt;&lt;b&gt;Critère&lt;/b&gt;" style="html=1;dropTarget=0;whiteSpace=wrap;strokeColor=#0F8B8D;fontColor=#143642;fillColor=#FAE5C7;" vertex="1" parent="1">
          <mxGeometry x="360" y="615" width="180" height="90" as="geometry" />
        </mxCell>
        <mxCell id="wHHLx8FjQf187PXlfKUF-169" value="" style="shape=module;jettyWidth=8;jettyHeight=4;strokeColor=#0F8B8D;fontColor=#143642;fillColor=#FAE5C7;" vertex="1" parent="wHHLx8FjQf187PXlfKUF-168">
          <mxGeometry x="1" width="20" height="20" relative="1" as="geometry">
            <mxPoint x="-27" y="7" as="offset" />
          </mxGeometry>
        </mxCell>
        <mxCell id="wHHLx8FjQf187PXlfKUF-170" value="«controller»&lt;br&gt;&lt;b&gt;Eval&lt;/b&gt;" style="html=1;dropTarget=0;whiteSpace=wrap;strokeColor=#0F8B8D;fontColor=#143642;fillColor=#FAE5C7;" vertex="1" parent="1">
          <mxGeometry x="90" y="615" width="180" height="90" as="geometry" />
        </mxCell>
        <mxCell id="wHHLx8FjQf187PXlfKUF-171" value="" style="shape=module;jettyWidth=8;jettyHeight=4;strokeColor=#0F8B8D;fontColor=#143642;fillColor=#FAE5C7;" vertex="1" parent="wHHLx8FjQf187PXlfKUF-170">
          <mxGeometry x="1" width="20" height="20" relative="1" as="geometry">
            <mxPoint x="-27" y="7" as="offset" />
          </mxGeometry>
        </mxCell>
        <mxCell id="wHHLx8FjQf187PXlfKUF-176" value="&lt;p style=&quot;margin:0px;margin-top:6px;text-align:center;&quot;&gt;&lt;b&gt;Module Home&lt;/b&gt;&lt;/p&gt;&lt;hr size=&quot;1&quot; style=&quot;border-style:solid;&quot;&gt;&lt;p style=&quot;margin:0px;margin-left:8px;&quot;&gt;&lt;br&gt;&lt;/p&gt;" style="align=left;overflow=fill;html=1;dropTarget=0;whiteSpace=wrap;strokeColor=#0F8B8D;fontColor=#143642;fillColor=#FAE5C7;" vertex="1" parent="1">
          <mxGeometry x="40" y="-10" width="530" height="180" as="geometry" />
        </mxCell>
        <mxCell id="wHHLx8FjQf187PXlfKUF-177" value="" style="shape=component;jettyWidth=8;jettyHeight=4;strokeColor=#0F8B8D;fontColor=#143642;fillColor=#FAE5C7;" vertex="1" parent="wHHLx8FjQf187PXlfKUF-176">
          <mxGeometry x="1" width="20" height="20" relative="1" as="geometry">
            <mxPoint x="-24" y="4" as="offset" />
          </mxGeometry>
        </mxCell>
        <mxCell id="wHHLx8FjQf187PXlfKUF-178" value="«controller»&lt;br&gt;&lt;div&gt;&lt;b&gt;Home&lt;/b&gt;&lt;/div&gt;" style="html=1;dropTarget=0;whiteSpace=wrap;strokeColor=#0F8B8D;fontColor=#143642;fillColor=#FAE5C7;" vertex="1" parent="1">
          <mxGeometry x="80" y="55" width="180" height="90" as="geometry" />
        </mxCell>
        <mxCell id="wHHLx8FjQf187PXlfKUF-179" value="" style="shape=module;jettyWidth=8;jettyHeight=4;strokeColor=#0F8B8D;fontColor=#143642;fillColor=#FAE5C7;" vertex="1" parent="wHHLx8FjQf187PXlfKUF-178">
          <mxGeometry x="1" width="20" height="20" relative="1" as="geometry">
            <mxPoint x="-27" y="7" as="offset" />
          </mxGeometry>
        </mxCell>
        <mxCell id="wHHLx8FjQf187PXlfKUF-180" value="«repository»&lt;br&gt;&lt;div&gt;&lt;b&gt;Training&lt;/b&gt;&lt;/div&gt;" style="html=1;dropTarget=0;whiteSpace=wrap;strokeColor=#0F8B8D;fontColor=#143642;fillColor=#FAE5C7;" vertex="1" parent="1">
          <mxGeometry x="360" y="50" width="180" height="90" as="geometry" />
        </mxCell>
        <mxCell id="wHHLx8FjQf187PXlfKUF-181" value="" style="shape=module;jettyWidth=8;jettyHeight=4;strokeColor=#0F8B8D;fontColor=#143642;fillColor=#FAE5C7;" vertex="1" parent="wHHLx8FjQf187PXlfKUF-180">
          <mxGeometry x="1" width="20" height="20" relative="1" as="geometry">
            <mxPoint x="-27" y="7" as="offset" />
          </mxGeometry>
        </mxCell>
        <mxCell id="wHHLx8FjQf187PXlfKUF-182" value="«repository»&lt;br&gt;&lt;b&gt;Critère&lt;/b&gt;" style="html=1;dropTarget=0;whiteSpace=wrap;strokeColor=#0F8B8D;fontColor=#143642;fillColor=#FAE5C7;" vertex="1" parent="1">
          <mxGeometry x="360" y="720" width="180" height="90" as="geometry" />
        </mxCell>
        <mxCell id="wHHLx8FjQf187PXlfKUF-183" value="" style="shape=module;jettyWidth=8;jettyHeight=4;strokeColor=#0F8B8D;fontColor=#143642;fillColor=#FAE5C7;" vertex="1" parent="wHHLx8FjQf187PXlfKUF-182">
          <mxGeometry x="1" width="20" height="20" relative="1" as="geometry">
            <mxPoint x="-27" y="7" as="offset" />
          </mxGeometry>
        </mxCell>
        <mxCell id="wHHLx8FjQf187PXlfKUF-184" value="«repository»&lt;br&gt;&lt;b&gt;Signature&lt;/b&gt;" style="html=1;dropTarget=0;whiteSpace=wrap;strokeColor=#0F8B8D;fontColor=#143642;fillColor=#FAE5C7;" vertex="1" parent="1">
          <mxGeometry x="360" y="269" width="180" height="90" as="geometry" />
        </mxCell>
        <mxCell id="wHHLx8FjQf187PXlfKUF-185" value="" style="shape=module;jettyWidth=8;jettyHeight=4;strokeColor=#0F8B8D;fontColor=#143642;fillColor=#FAE5C7;" vertex="1" parent="wHHLx8FjQf187PXlfKUF-184">
          <mxGeometry x="1" width="20" height="20" relative="1" as="geometry">
            <mxPoint x="-27" y="7" as="offset" />
          </mxGeometry>
        </mxCell>
        <mxCell id="wHHLx8FjQf187PXlfKUF-186" value="DB" style="shape=cylinder3;whiteSpace=wrap;html=1;boundedLbl=1;backgroundOutline=1;size=15;strokeColor=#0F8B8D;fontColor=#143642;fillColor=#FAE5C7;" vertex="1" parent="1">
          <mxGeometry x="670" y="200" width="120" height="80" as="geometry" />
        </mxCell>
        <mxCell id="wHHLx8FjQf187PXlfKUF-187" value="NFS" style="shape=cylinder3;whiteSpace=wrap;html=1;boundedLbl=1;backgroundOutline=1;size=15;strokeColor=#0F8B8D;fontColor=#143642;fillColor=#FAE5C7;" vertex="1" parent="1">
          <mxGeometry x="-230" y="400" width="120" height="80" as="geometry" />
        </mxCell>
        <mxCell id="wHHLx8FjQf187PXlfKUF-189" value="" style="html=1;rounded=0;strokeColor=#0F8B8D;fontColor=#143642;fillColor=#FAE5C7;" vertex="1" parent="1">
          <mxGeometry x="-70" y="90" width="20" height="20" as="geometry" />
        </mxCell>
        <mxCell id="wHHLx8FjQf187PXlfKUF-190" value="" style="endArrow=none;html=1;rounded=0;align=center;verticalAlign=top;endFill=0;labelBackgroundColor=none;endSize=2;strokeColor=#A8201A;fontColor=#143642;fillColor=#FAE5C7;" edge="1" source="wHHLx8FjQf187PXlfKUF-191" parent="1">
          <mxGeometry relative="1" as="geometry">
            <mxPoint x="-20" y="100" as="targetPoint" />
          </mxGeometry>
        </mxCell>
        <mxCell id="wHHLx8FjQf187PXlfKUF-197" value="" style="endArrow=none;html=1;rounded=0;align=center;verticalAlign=top;endFill=0;labelBackgroundColor=none;endSize=2;strokeColor=#A8201A;fontColor=#143642;fillColor=#FAE5C7;" edge="1" parent="1" source="wHHLx8FjQf187PXlfKUF-189" target="wHHLx8FjQf187PXlfKUF-191">
          <mxGeometry relative="1" as="geometry">
            <mxPoint x="-50" y="100" as="sourcePoint" />
            <mxPoint x="-20" y="100" as="targetPoint" />
          </mxGeometry>
        </mxCell>
        <mxCell id="wHHLx8FjQf187PXlfKUF-191" value="" style="ellipse;html=1;fontSize=11;align=center;fillColor=none;points=[];aspect=fixed;resizable=0;verticalAlign=bottom;labelPosition=center;verticalLabelPosition=top;flipH=1;strokeColor=#0F8B8D;fontColor=#143642;" vertex="1" parent="1">
          <mxGeometry x="-20" y="96" width="8" height="8" as="geometry" />
        </mxCell>
        <mxCell id="wHHLx8FjQf187PXlfKUF-198" style="edgeStyle=orthogonalEdgeStyle;rounded=0;orthogonalLoop=1;jettySize=auto;html=1;exitX=0.5;exitY=1;exitDx=0;exitDy=0;entryX=0.25;entryY=1;entryDx=0;entryDy=0;strokeColor=#A8201A;fontColor=#143642;fillColor=#FAE5C7;" edge="1" parent="1">
          <mxGeometry relative="1" as="geometry">
            <mxPoint x="70" y="105" as="sourcePoint" />
            <mxPoint x="65" y="105" as="targetPoint" />
          </mxGeometry>
        </mxCell>
        <mxCell id="wHHLx8FjQf187PXlfKUF-199" value="" style="html=1;rounded=0;strokeColor=#0F8B8D;fontColor=#143642;fillColor=#FAE5C7;" vertex="1" parent="1">
          <mxGeometry x="60" y="90" width="20" height="20" as="geometry" />
        </mxCell>
        <mxCell id="wHHLx8FjQf187PXlfKUF-200" value="" style="endArrow=none;html=1;rounded=0;align=center;verticalAlign=top;endFill=0;labelBackgroundColor=none;endSize=2;strokeColor=#A8201A;fontColor=#143642;fillColor=#FAE5C7;entryX=1;entryY=0.617;entryDx=0;entryDy=0;entryPerimeter=0;" edge="1" source="wHHLx8FjQf187PXlfKUF-199" target="wHHLx8FjQf187PXlfKUF-201" parent="1">
          <mxGeometry relative="1" as="geometry">
            <mxPoint x="-50" y="100" as="targetPoint" />
          </mxGeometry>
        </mxCell>
        <mxCell id="wHHLx8FjQf187PXlfKUF-201" value="" style="shape=requiredInterface;html=1;fontSize=11;align=center;fillColor=none;points=[];aspect=fixed;resizable=0;verticalAlign=bottom;labelPosition=center;verticalLabelPosition=top;flipH=1;strokeColor=#0F8B8D;fontColor=#143642;rotation=-180;" vertex="1" parent="1">
          <mxGeometry x="-12" y="96" width="5" height="10" as="geometry" />
        </mxCell>
        <mxCell id="wHHLx8FjQf187PXlfKUF-202" value="" style="endArrow=none;html=1;rounded=0;align=center;verticalAlign=top;endFill=0;labelBackgroundColor=none;endSize=2;strokeColor=#A8201A;fontColor=#143642;fillColor=#FAE5C7;" edge="1" parent="1">
          <mxGeometry relative="1" as="geometry">
            <mxPoint x="50" y="74" as="targetPoint" />
            <mxPoint x="50.00000000000932" y="74" as="sourcePoint" />
          </mxGeometry>
        </mxCell>
        <mxCell id="wHHLx8FjQf187PXlfKUF-206" value="" style="html=1;rounded=0;strokeColor=#0F8B8D;fontColor=#143642;fillColor=#FAE5C7;" vertex="1" parent="1">
          <mxGeometry x="260" y="89" width="20" height="24" as="geometry" />
        </mxCell>
        <mxCell id="wHHLx8FjQf187PXlfKUF-207" value="" style="endArrow=none;html=1;rounded=0;align=center;verticalAlign=top;endFill=0;labelBackgroundColor=none;endSize=2;strokeColor=#A8201A;fontColor=#143642;fillColor=#FAE5C7;" edge="1" source="wHHLx8FjQf187PXlfKUF-206" target="wHHLx8FjQf187PXlfKUF-208" parent="1">
          <mxGeometry relative="1" as="geometry" />
        </mxCell>
        <mxCell id="wHHLx8FjQf187PXlfKUF-208" value="" style="ellipse;html=1;fontSize=11;align=center;fillColor=none;points=[];aspect=fixed;resizable=0;verticalAlign=bottom;labelPosition=center;verticalLabelPosition=top;flipH=1;strokeColor=#0F8B8D;fontColor=#143642;" vertex="1" parent="1">
          <mxGeometry x="312" y="97" width="8" height="8" as="geometry" />
        </mxCell>
        <mxCell id="wHHLx8FjQf187PXlfKUF-210" value="" style="html=1;rounded=0;strokeColor=#0F8B8D;fontColor=#143642;fillColor=#FAE5C7;" vertex="1" parent="1">
          <mxGeometry x="340" y="89" width="20" height="20" as="geometry" />
        </mxCell>
        <mxCell id="wHHLx8FjQf187PXlfKUF-211" value="" style="endArrow=none;html=1;rounded=0;align=center;verticalAlign=top;endFill=0;labelBackgroundColor=none;endSize=2;strokeColor=#A8201A;fontColor=#143642;fillColor=#FAE5C7;entryX=0.025;entryY=0.442;entryDx=0;entryDy=0;entryPerimeter=0;" edge="1" source="wHHLx8FjQf187PXlfKUF-210" target="wHHLx8FjQf187PXlfKUF-208" parent="1">
          <mxGeometry relative="1" as="geometry" />
        </mxCell>
        <mxCell id="wHHLx8FjQf187PXlfKUF-212" value="" style="shape=requiredInterface;html=1;fontSize=11;align=center;fillColor=none;points=[];aspect=fixed;resizable=0;verticalAlign=bottom;labelPosition=center;verticalLabelPosition=top;flipH=1;strokeColor=#0F8B8D;fontColor=#143642;rotation=-210;" vertex="1" parent="1">
          <mxGeometry x="320" y="96" width="5" height="10" as="geometry" />
        </mxCell>
        <mxCell id="wHHLx8FjQf187PXlfKUF-213" value="" style="html=1;rounded=0;strokeColor=#0F8B8D;fontColor=#143642;fillColor=#FAE5C7;" vertex="1" parent="1">
          <mxGeometry x="720" y="180" width="20" height="20" as="geometry" />
        </mxCell>
        <mxCell id="wHHLx8FjQf187PXlfKUF-214" value="" style="endArrow=none;html=1;rounded=0;align=center;verticalAlign=top;endFill=0;labelBackgroundColor=none;endSize=2;strokeColor=#A8201A;fontColor=#143642;fillColor=#FAE5C7;" edge="1" source="wHHLx8FjQf187PXlfKUF-213" target="wHHLx8FjQf187PXlfKUF-215" parent="1">
          <mxGeometry relative="1" as="geometry" />
        </mxCell>
        <mxCell id="wHHLx8FjQf187PXlfKUF-215" value="" style="ellipse;html=1;fontSize=11;align=center;fillColor=none;points=[];aspect=fixed;resizable=0;verticalAlign=bottom;labelPosition=center;verticalLabelPosition=top;flipH=1;strokeColor=#0F8B8D;fontColor=#143642;" vertex="1" parent="1">
          <mxGeometry x="726" y="160" width="8" height="8" as="geometry" />
        </mxCell>
        <mxCell id="wHHLx8FjQf187PXlfKUF-217" value="" style="html=1;rounded=0;strokeColor=#0F8B8D;fontColor=#143642;fillColor=#FAE5C7;" vertex="1" parent="1">
          <mxGeometry x="540" y="95" width="20" height="14" as="geometry" />
        </mxCell>
        <mxCell id="wHHLx8FjQf187PXlfKUF-218" value="" style="endArrow=none;html=1;rounded=0;align=center;verticalAlign=top;endFill=0;labelBackgroundColor=none;endSize=2;strokeColor=#A8201A;fontColor=#143642;fillColor=#FAE5C7;" edge="1" source="wHHLx8FjQf187PXlfKUF-217" target="wHHLx8FjQf187PXlfKUF-219" parent="1">
          <mxGeometry relative="1" as="geometry" />
        </mxCell>
        <mxCell id="wHHLx8FjQf187PXlfKUF-219" value="" style="shape=requiredInterface;html=1;fontSize=11;align=center;fillColor=none;points=[];aspect=fixed;resizable=0;verticalAlign=bottom;labelPosition=center;verticalLabelPosition=top;flipH=1;strokeColor=#0F8B8D;fontColor=#143642;" vertex="1" parent="1">
          <mxGeometry x="721" y="158" width="5" height="10" as="geometry" />
        </mxCell>
        <mxCell id="wHHLx8FjQf187PXlfKUF-223" value="" style="html=1;rounded=0;strokeColor=#0F8B8D;fontColor=#143642;fillColor=#FAE5C7;" vertex="1" parent="1">
          <mxGeometry x="540" y="305" width="25" height="20" as="geometry" />
        </mxCell>
        <mxCell id="wHHLx8FjQf187PXlfKUF-224" value="" style="endArrow=none;html=1;rounded=0;align=center;verticalAlign=top;endFill=0;labelBackgroundColor=none;endSize=2;strokeColor=#A8201A;fontColor=#143642;fillColor=#FAE5C7;" edge="1" source="wHHLx8FjQf187PXlfKUF-225" parent="1">
          <mxGeometry relative="1" as="geometry">
            <mxPoint x="720" y="160" as="targetPoint" />
          </mxGeometry>
        </mxCell>
        <mxCell id="wHHLx8FjQf187PXlfKUF-226" value="" style="endArrow=none;html=1;rounded=0;align=center;verticalAlign=top;endFill=0;labelBackgroundColor=none;endSize=2;strokeColor=#A8201A;fontColor=#143642;fillColor=#FAE5C7;" edge="1" parent="1" source="wHHLx8FjQf187PXlfKUF-223" target="wHHLx8FjQf187PXlfKUF-225">
          <mxGeometry relative="1" as="geometry">
            <mxPoint x="419" y="420" as="sourcePoint" />
            <mxPoint x="720" y="160" as="targetPoint" />
          </mxGeometry>
        </mxCell>
        <mxCell id="wHHLx8FjQf187PXlfKUF-225" value="" style="shape=requiredInterface;html=1;fontSize=11;align=center;fillColor=none;points=[];aspect=fixed;resizable=0;verticalAlign=bottom;labelPosition=center;verticalLabelPosition=top;flipH=1;strokeColor=#0F8B8D;fontColor=#143642;" vertex="1" parent="1">
          <mxGeometry x="720" y="150" width="5" height="10" as="geometry" />
        </mxCell>
        <mxCell id="wHHLx8FjQf187PXlfKUF-227" value="" style="html=1;rounded=0;strokeColor=#0F8B8D;fontColor=#143642;fillColor=#FAE5C7;" vertex="1" parent="1">
          <mxGeometry x="540" y="754" width="20" height="20" as="geometry" />
        </mxCell>
        <mxCell id="wHHLx8FjQf187PXlfKUF-228" value="" style="endArrow=none;html=1;rounded=0;align=center;verticalAlign=top;endFill=0;labelBackgroundColor=none;endSize=2;strokeColor=#A8201A;fontColor=#143642;fillColor=#FAE5C7;entryX=0.6;entryY=0.933;entryDx=0;entryDy=0;entryPerimeter=0;" edge="1" source="wHHLx8FjQf187PXlfKUF-227" target="wHHLx8FjQf187PXlfKUF-219" parent="1">
          <mxGeometry relative="1" as="geometry" />
        </mxCell>
        <mxCell id="wHHLx8FjQf187PXlfKUF-231" value="" style="html=1;rounded=0;strokeColor=#0F8B8D;fontColor=#143642;fillColor=#FAE5C7;" vertex="1" parent="1">
          <mxGeometry x="-110" y="434" width="20" height="20" as="geometry" />
        </mxCell>
        <mxCell id="wHHLx8FjQf187PXlfKUF-232" value="" style="endArrow=none;html=1;rounded=0;align=center;verticalAlign=top;endFill=0;labelBackgroundColor=none;endSize=2;strokeColor=#A8201A;fontColor=#143642;fillColor=#FAE5C7;" edge="1" source="wHHLx8FjQf187PXlfKUF-231" target="wHHLx8FjQf187PXlfKUF-233" parent="1">
          <mxGeometry relative="1" as="geometry" />
        </mxCell>
        <mxCell id="wHHLx8FjQf187PXlfKUF-233" value="" style="ellipse;html=1;fontSize=11;align=center;fillColor=none;points=[];aspect=fixed;resizable=0;verticalAlign=bottom;labelPosition=center;verticalLabelPosition=top;flipH=1;strokeColor=#0F8B8D;fontColor=#143642;" vertex="1" parent="1">
          <mxGeometry x="-58" y="441" width="8" height="8" as="geometry" />
        </mxCell>
        <mxCell id="wHHLx8FjQf187PXlfKUF-234" value="" style="html=1;rounded=0;strokeColor=#0F8B8D;fontColor=#143642;fillColor=#FAE5C7;" vertex="1" parent="1">
          <mxGeometry x="60" y="425" width="30" height="30" as="geometry" />
        </mxCell>
        <mxCell id="wHHLx8FjQf187PXlfKUF-235" value="" style="endArrow=none;html=1;rounded=0;align=center;verticalAlign=top;endFill=0;labelBackgroundColor=none;endSize=2;strokeColor=#A8201A;fontColor=#143642;fillColor=#FAE5C7;" edge="1" source="wHHLx8FjQf187PXlfKUF-234" target="wHHLx8FjQf187PXlfKUF-236" parent="1">
          <mxGeometry relative="1" as="geometry" />
        </mxCell>
        <mxCell id="wHHLx8FjQf187PXlfKUF-236" value="" style="shape=requiredInterface;html=1;fontSize=11;align=center;fillColor=none;points=[];aspect=fixed;resizable=0;verticalAlign=bottom;labelPosition=center;verticalLabelPosition=top;flipH=1;strokeColor=#0F8B8D;fontColor=#143642;rotation=135;" vertex="1" parent="1">
          <mxGeometry x="-55" y="435" width="5" height="10" as="geometry" />
        </mxCell>
        <mxCell id="wHHLx8FjQf187PXlfKUF-237" value="5432" style="text;html=1;whiteSpace=wrap;strokeColor=none;fillColor=none;align=center;verticalAlign=middle;rounded=0;fontColor=#143642;" vertex="1" parent="1">
          <mxGeometry x="730" y="170" width="60" height="30" as="geometry" />
        </mxCell>
        <mxCell id="wHHLx8FjQf187PXlfKUF-238" value="111" style="text;html=1;whiteSpace=wrap;strokeColor=none;fillColor=none;align=center;verticalAlign=middle;rounded=0;fontColor=#143642;" vertex="1" parent="1">
          <mxGeometry x="-118" y="404" width="60" height="30" as="geometry" />
        </mxCell>
        <mxCell id="wHHLx8FjQf187PXlfKUF-239" value="" style="html=1;rounded=0;strokeColor=#0F8B8D;fontColor=#143642;fillColor=#FAE5C7;" vertex="1" parent="1">
          <mxGeometry x="270" y="284" width="20" height="20" as="geometry" />
        </mxCell>
        <mxCell id="wHHLx8FjQf187PXlfKUF-240" value="" style="endArrow=none;html=1;rounded=0;align=center;verticalAlign=top;endFill=0;labelBackgroundColor=none;endSize=2;strokeColor=#A8201A;fontColor=#143642;fillColor=#FAE5C7;" edge="1" source="wHHLx8FjQf187PXlfKUF-239" target="wHHLx8FjQf187PXlfKUF-241" parent="1">
          <mxGeometry relative="1" as="geometry" />
        </mxCell>
        <mxCell id="wHHLx8FjQf187PXlfKUF-241" value="" style="ellipse;html=1;fontSize=11;align=center;fillColor=none;points=[];aspect=fixed;resizable=0;verticalAlign=bottom;labelPosition=center;verticalLabelPosition=top;flipH=1;strokeColor=#0F8B8D;fontColor=#143642;" vertex="1" parent="1">
          <mxGeometry x="322" y="311" width="8" height="8" as="geometry" />
        </mxCell>
        <mxCell id="wHHLx8FjQf187PXlfKUF-242" value="" style="html=1;rounded=0;strokeColor=#0F8B8D;fontColor=#143642;fillColor=#FAE5C7;" vertex="1" parent="1">
          <mxGeometry x="338.5" y="305" width="20" height="20" as="geometry" />
        </mxCell>
        <mxCell id="wHHLx8FjQf187PXlfKUF-243" value="" style="endArrow=none;html=1;rounded=0;align=center;verticalAlign=top;endFill=0;labelBackgroundColor=none;endSize=2;strokeColor=#A8201A;fontColor=#143642;fillColor=#FAE5C7;entryX=0.677;entryY=0.885;entryDx=0;entryDy=0;entryPerimeter=0;" edge="1" source="wHHLx8FjQf187PXlfKUF-244" target="wHHLx8FjQf187PXlfKUF-241" parent="1">
          <mxGeometry relative="1" as="geometry" />
        </mxCell>
        <mxCell id="wHHLx8FjQf187PXlfKUF-245" value="" style="endArrow=none;html=1;rounded=0;align=center;verticalAlign=top;endFill=0;labelBackgroundColor=none;endSize=2;strokeColor=#A8201A;fontColor=#143642;fillColor=#FAE5C7;entryX=0.677;entryY=0.885;entryDx=0;entryDy=0;entryPerimeter=0;" edge="1" parent="1" source="wHHLx8FjQf187PXlfKUF-242" target="wHHLx8FjQf187PXlfKUF-244">
          <mxGeometry relative="1" as="geometry">
            <mxPoint x="339" y="316" as="sourcePoint" />
            <mxPoint x="325" y="318" as="targetPoint" />
          </mxGeometry>
        </mxCell>
        <mxCell id="wHHLx8FjQf187PXlfKUF-244" value="" style="shape=requiredInterface;html=1;fontSize=11;align=center;fillColor=none;points=[];aspect=fixed;resizable=0;verticalAlign=bottom;labelPosition=center;verticalLabelPosition=top;flipH=1;strokeColor=#0F8B8D;fontColor=#143642;rotation=-180;" vertex="1" parent="1">
          <mxGeometry x="330" y="315" width="5" height="10" as="geometry" />
        </mxCell>
        <mxCell id="wHHLx8FjQf187PXlfKUF-246" value="" style="html=1;rounded=0;strokeColor=#0F8B8D;fontColor=#143642;fillColor=#FAE5C7;" vertex="1" parent="1">
          <mxGeometry x="270" y="429" width="20" height="21" as="geometry" />
        </mxCell>
        <mxCell id="wHHLx8FjQf187PXlfKUF-247" value="" style="endArrow=none;html=1;rounded=0;align=center;verticalAlign=top;endFill=0;labelBackgroundColor=none;endSize=2;strokeColor=#A8201A;fontColor=#143642;fillColor=#FAE5C7;" edge="1" source="wHHLx8FjQf187PXlfKUF-246" target="wHHLx8FjQf187PXlfKUF-248" parent="1">
          <mxGeometry relative="1" as="geometry" />
        </mxCell>
        <mxCell id="wHHLx8FjQf187PXlfKUF-248" value="" style="ellipse;html=1;fontSize=11;align=center;fillColor=none;points=[];aspect=fixed;resizable=0;verticalAlign=bottom;labelPosition=center;verticalLabelPosition=top;flipH=1;strokeColor=#0F8B8D;fontColor=#143642;" vertex="1" parent="1">
          <mxGeometry x="322" y="440" width="8" height="8" as="geometry" />
        </mxCell>
        <mxCell id="wHHLx8FjQf187PXlfKUF-249" value="" style="html=1;rounded=0;strokeColor=#0F8B8D;fontColor=#143642;fillColor=#FAE5C7;" vertex="1" parent="1">
          <mxGeometry x="272" y="327" width="18" height="23" as="geometry" />
        </mxCell>
        <mxCell id="wHHLx8FjQf187PXlfKUF-250" value="" style="endArrow=none;html=1;rounded=0;align=center;verticalAlign=top;endFill=0;labelBackgroundColor=none;endSize=2;strokeColor=#A8201A;fontColor=#143642;fillColor=#FAE5C7;entryX=0.875;entryY=0.534;entryDx=0;entryDy=0;entryPerimeter=0;" edge="1" source="wHHLx8FjQf187PXlfKUF-249" target="wHHLx8FjQf187PXlfKUF-248" parent="1">
          <mxGeometry relative="1" as="geometry" />
        </mxCell>
        <mxCell id="wHHLx8FjQf187PXlfKUF-251" value="" style="shape=requiredInterface;html=1;fontSize=11;align=center;fillColor=none;points=[];aspect=fixed;resizable=0;verticalAlign=bottom;labelPosition=center;verticalLabelPosition=top;flipH=1;strokeColor=#0F8B8D;fontColor=#143642;" vertex="1" parent="1">
          <mxGeometry x="245" y="390" width="5" height="10" as="geometry" />
        </mxCell>
        <mxCell id="wHHLx8FjQf187PXlfKUF-253" value="" style="html=1;rounded=0;strokeColor=#0F8B8D;fontColor=#143642;fillColor=#FAE5C7;" vertex="1" parent="1">
          <mxGeometry x="270" y="685" width="20" height="20" as="geometry" />
        </mxCell>
        <mxCell id="wHHLx8FjQf187PXlfKUF-254" value="" style="endArrow=none;html=1;rounded=0;align=center;verticalAlign=top;endFill=0;labelBackgroundColor=none;endSize=2;strokeColor=#A8201A;fontColor=#143642;fillColor=#FAE5C7;" edge="1" source="wHHLx8FjQf187PXlfKUF-253" target="wHHLx8FjQf187PXlfKUF-255" parent="1">
          <mxGeometry relative="1" as="geometry" />
        </mxCell>
        <mxCell id="wHHLx8FjQf187PXlfKUF-255" value="" style="ellipse;html=1;fontSize=11;align=center;fillColor=none;points=[];aspect=fixed;resizable=0;verticalAlign=bottom;labelPosition=center;verticalLabelPosition=top;flipH=1;strokeColor=#0F8B8D;fontColor=#143642;" vertex="1" parent="1">
          <mxGeometry x="304" y="720" width="8" height="8" as="geometry" />
        </mxCell>
        <mxCell id="wHHLx8FjQf187PXlfKUF-256" value="" style="html=1;rounded=0;strokeColor=#0F8B8D;fontColor=#143642;fillColor=#FAE5C7;" vertex="1" parent="1">
          <mxGeometry x="339" y="750" width="20" height="20" as="geometry" />
        </mxCell>
        <mxCell id="wHHLx8FjQf187PXlfKUF-257" value="" style="endArrow=none;html=1;rounded=0;align=center;verticalAlign=top;endFill=0;labelBackgroundColor=none;endSize=2;strokeColor=#A8201A;fontColor=#143642;fillColor=#FAE5C7;exitX=1;exitY=0.5;exitDx=0;exitDy=0;" edge="1" source="wHHLx8FjQf187PXlfKUF-256" target="wHHLx8FjQf187PXlfKUF-258" parent="1">
          <mxGeometry relative="1" as="geometry" />
        </mxCell>
        <mxCell id="wHHLx8FjQf187PXlfKUF-258" value="" style="shape=requiredInterface;html=1;fontSize=11;align=center;fillColor=none;points=[];aspect=fixed;resizable=0;verticalAlign=bottom;labelPosition=center;verticalLabelPosition=top;flipH=1;strokeColor=#0F8B8D;fontColor=#143642;rotation=90;" vertex="1" parent="1">
          <mxGeometry x="307" y="720" width="5" height="10" as="geometry" />
        </mxCell>
        <mxCell id="wHHLx8FjQf187PXlfKUF-259" value="" style="html=1;rounded=0;strokeColor=#0F8B8D;fontColor=#143642;fillColor=#FAE5C7;" vertex="1" parent="1">
          <mxGeometry x="272" y="640" width="18" height="20" as="geometry" />
        </mxCell>
        <mxCell id="wHHLx8FjQf187PXlfKUF-260" value="" style="endArrow=none;html=1;rounded=0;align=center;verticalAlign=top;endFill=0;labelBackgroundColor=none;endSize=2;strokeColor=#A8201A;fontColor=#143642;fillColor=#FAE5C7;" edge="1" source="wHHLx8FjQf187PXlfKUF-264" target="wHHLx8FjQf187PXlfKUF-261" parent="1">
          <mxGeometry relative="1" as="geometry" />
        </mxCell>
        <mxCell id="wHHLx8FjQf187PXlfKUF-261" value="" style="shape=requiredInterface;html=1;fontSize=11;align=center;fillColor=none;points=[];aspect=fixed;resizable=0;verticalAlign=bottom;labelPosition=center;verticalLabelPosition=top;flipH=1;strokeColor=#0F8B8D;fontColor=#143642;" vertex="1" parent="1">
          <mxGeometry x="327" y="650" width="5" height="10" as="geometry" />
        </mxCell>
        <mxCell id="wHHLx8FjQf187PXlfKUF-262" value="" style="html=1;rounded=0;strokeColor=#0F8B8D;fontColor=#143642;fillColor=#FAE5C7;" vertex="1" parent="1">
          <mxGeometry x="340" y="650" width="20" height="20" as="geometry" />
        </mxCell>
        <mxCell id="wHHLx8FjQf187PXlfKUF-263" value="" style="endArrow=none;html=1;rounded=0;align=center;verticalAlign=top;endFill=0;labelBackgroundColor=none;endSize=2;strokeColor=#A8201A;fontColor=#143642;fillColor=#FAE5C7;" edge="1" source="wHHLx8FjQf187PXlfKUF-262" target="wHHLx8FjQf187PXlfKUF-264" parent="1">
          <mxGeometry relative="1" as="geometry" />
        </mxCell>
        <mxCell id="wHHLx8FjQf187PXlfKUF-265" value="" style="endArrow=none;html=1;rounded=0;align=center;verticalAlign=top;endFill=0;labelBackgroundColor=none;endSize=2;strokeColor=#A8201A;fontColor=#143642;fillColor=#FAE5C7;" edge="1" parent="1" source="wHHLx8FjQf187PXlfKUF-259" target="wHHLx8FjQf187PXlfKUF-264">
          <mxGeometry relative="1" as="geometry">
            <mxPoint x="290" y="651" as="sourcePoint" />
            <mxPoint x="327" y="655" as="targetPoint" />
          </mxGeometry>
        </mxCell>
        <mxCell id="wHHLx8FjQf187PXlfKUF-264" value="" style="ellipse;html=1;fontSize=11;align=center;fillColor=none;points=[];aspect=fixed;resizable=0;verticalAlign=bottom;labelPosition=center;verticalLabelPosition=top;flipH=1;strokeColor=#0F8B8D;fontColor=#143642;" vertex="1" parent="1">
          <mxGeometry x="322" y="651" width="8" height="8" as="geometry" />
        </mxCell>
      </root>
    </mxGraphModel>
  </diagram>
</mxfile>
